<?xml version="1.0" encoding="UTF-8"?>
<svg width="251px" height="97px" viewBox="0 0 251 97" version="1.1" xmlns="http://www.w3.org/2000/svg" xmlns:xlink="http://www.w3.org/1999/xlink">
    <!-- Generator: Sketch 49 (51002) - http://www.bohemiancoding.com/sketch -->
    <title>Desktop</title>
    <desc>Created with Sketch.</desc>
    <defs></defs>
    <g id="Desktop" stroke="none" stroke-width="1" fill="none" fill-rule="evenodd">
        <path d="M150.7256,62.1413 C144.3726,68.5343 136.6366,71.7293 127.5176,71.7293 C118.3966,71.7293 110.6616,68.5343 104.3096,62.1413 C97.9586,55.7493 94.7836,47.9933 94.7836,38.8723 C94.7836,29.8343 97.9776,22.1203 104.3716,15.7263 C110.7636,9.3353 118.4786,6.1383 127.5176,6.1383 C136.5566,6.1383 144.2706,9.3353 150.6636,15.7263 C157.0556,22.1203 160.2526,29.8343 160.2526,38.8723 C160.2526,47.9933 157.0766,55.7493 150.7256,62.1413 Z M199.4796,0.0313 C188.7316,0.0313 179.5696,3.8173 171.9976,11.3903 C168.2246,15.1633 165.3916,19.3313 163.4986,23.8933 C161.6056,19.3313 158.7736,15.1633 154.9996,11.3903 C147.4266,3.8173 138.2656,0.0313 127.5176,0.0313 C116.7686,0.0313 107.6076,3.8173 100.0356,11.3903 C96.6076,14.8183 93.9646,18.5743 92.0876,22.6523 C90.6996,19.9823 88.8006,17.3723 86.3656,14.3353 C79.6426,5.9493 70.4986,-0.0007 59.7896,-0.0007 L-0.0004,0.0313 L21.5526,20.5263 C19.3516,24.7123 17.9546,29.3403 17.3826,34.4213 C16.1786,45.0933 18.9406,54.6203 25.6636,63.0063 C31.6236,70.4393 39.2516,75.0713 48.5506,76.9063 L49.7266,70.9533 C41.9036,69.3973 35.4716,65.4753 30.4286,59.1863 C24.7236,52.0703 22.3776,44.0373 23.3916,35.0823 C24.4056,26.1293 28.4696,18.7993 35.5856,13.0933 C42.6366,7.4393 50.6536,5.1063 59.6416,6.0953 C68.6256,7.0833 75.9466,11.1033 81.6006,18.1553 C85.0336,22.4363 87.2296,27.0783 88.2416,32.0683 L64.3726,32.0683 L64.3726,38.1753 L88.6906,38.1753 C88.6856,38.4083 88.6766,38.6383 88.6766,38.8723 C88.6766,49.6213 92.4626,58.8033 100.0356,66.4153 L127.5176,96.7953 L154.9996,66.4153 C158.7736,62.6223 161.6056,58.4393 163.4986,53.8673 C165.3916,58.4393 168.2246,62.6223 171.9976,66.4153 C179.5696,74.0313 188.7316,77.8363 199.4796,77.8363 C209.0056,77.8363 217.3926,74.7833 224.6406,68.6753 L220.7316,64.0343 C214.6246,69.1643 207.5406,71.7293 199.4796,71.7293 C190.3596,71.7293 182.6236,68.5343 176.2726,62.1413 C169.9206,55.7493 166.7456,47.9933 166.7456,38.8723 C166.7456,29.8343 169.9406,22.1203 176.3336,15.7263 C182.7246,9.3353 190.4416,6.1383 199.4796,6.1383 C207.6216,6.1383 212.7706,8.4713 220.9456,13.5803 C223.7996,15.7263 226.7046,18.0583 229.4906,20.5263 L251.0426,0.0313 L199.4796,0.0313 Z" id="Fill-1" fill="#FFFFFF"></path>
    </g>
</svg>